<svg xmlns="http://www.w3.org/2000/svg" width="33.781" height="32" viewBox="0 0 33.781 32">
  <defs>
    <style>
      .cls-1 {
        fill: #feeec2;
        fill-rule: evenodd;
      }
    </style>
  </defs>
  <path id="Forma_1_копия_3" data-name="Forma 1 копия 3" class="cls-1" d="M247.967,274.178a0.606,0.606,0,0,0-.489-0.41l-10.944-1.58-4.894-9.856a0.605,0.605,0,0,0-1.084,0l-4.894,9.856-10.943,1.581a0.605,0.605,0,0,0-.489.409,0.6,0.6,0,0,0,.153.616l7.919,7.672-1.87,10.833a0.6,0.6,0,0,0,.877.634l9.789-5.114,9.788,5.114a0.615,0.615,0,0,0,.282.069,0.6,0.6,0,0,0,.6-0.7L239.9,282.467l7.919-7.673A0.6,0.6,0,0,0,247.967,274.178Z" transform="translate(-214.188 -262)"/>
</svg>
