<svg xmlns="http://www.w3.org/2000/svg" width="27.031" height="32.032" viewBox="0 0 27.031 32.032">
  <defs>
    <style>
      .cls-1 {
        fill: #fff;
        fill-rule: evenodd;
      }
    </style>
  </defs>
  <path id="Forma_1" data-name="Forma 1" class="cls-1" d="M470.409,467.688a1.879,1.879,0,0,1,0-3.754,1.846,1.846,0,0,0-1.8-1.877H461.22a17,17,0,0,0,1.081-6.634,2.769,2.769,0,0,0-2.7-2.816h-0.541a0.94,0.94,0,0,0-.865.713c-0.891,3.617-2.285,7.766-5.8,8.606v13.583l3.116,1.078a8.657,8.657,0,0,0,2.847.488h8.45a1.879,1.879,0,0,0,0-3.754h1.8A4.271,4.271,0,0,1,470.409,467.688Zm-22.522-7.509h-3.6a0.92,0.92,0,0,0-.9.939v16.9a0.92,0.92,0,0,0,.9.939h3.6a2.764,2.764,0,0,0,2.7-2.816V463A2.764,2.764,0,0,0,447.887,460.179Zm0,15.019a0.939,0.939,0,1,1,.9-0.938A0.92,0.92,0,0,1,447.887,475.2Zm7.889-24.147-1.274-1.327a0.876,0.876,0,0,0-1.274,0,0.968,0.968,0,0,0,0,1.327l1.274,1.328a0.875,0.875,0,0,0,1.274,0A0.967,0.967,0,0,0,455.776,451.051Zm10.193-1.327a0.876,0.876,0,0,0-1.274,0l-1.274,1.327a0.967,0.967,0,0,0,0,1.328,0.875,0.875,0,0,0,1.274,0l1.274-1.328A0.968,0.968,0,0,0,465.969,449.724Zm-6.37-2.811a0.91,0.91,0,0,0-.9.938v1.94a0.9,0.9,0,1,0,1.8,0v-1.94A0.91,0.91,0,0,0,459.6,446.913Z" transform="translate(-443.375 -446.906)"/>
</svg>
