<svg xmlns="http://www.w3.org/2000/svg" width="46" height="47" viewBox="0 0 46 47">
  <defs>
    <style>
      .cls-1 {
        fill: #fff;
        fill-rule: evenodd;
      }
    </style>
  </defs>
  <path id="Forma_1" data-name="Forma 1" class="cls-1" d="M622.428,953.143h11.706a0.808,0.808,0,0,0,.6-0.236,0.817,0.817,0,0,0,.236-0.6v-5.036a0.808,0.808,0,0,0-.836-0.839H622.428a0.81,0.81,0,0,0-.6.236,0.82,0.82,0,0,0-.235.6V952.3A0.806,0.806,0,0,0,622.428,953.143Zm0-13.429h6.688a0.806,0.806,0,0,0,.836-0.839v-5.036a0.806,0.806,0,0,0-.836-0.839h-6.688a0.806,0.806,0,0,0-.836.839v5.036A0.806,0.806,0,0,0,622.429,939.714Zm-5.853,30.214h-5.017V933.839a0.806,0.806,0,0,0-.836-0.839h-5.017a0.806,0.806,0,0,0-.836.839v36.089h-5.016a0.776,0.776,0,0,0-.784.525,0.8,0.8,0,0,0,.182.918l8.361,8.393a0.939,0.939,0,0,0,.6.236,0.871,0.871,0,0,0,.6-0.236l8.335-8.367a0.983,0.983,0,0,0,.262-0.628,0.825,0.825,0,0,0-.235-0.605A0.814,0.814,0,0,0,616.576,969.928Zm28.192,3.594a0.81,0.81,0,0,0-.6-0.236H622.429a0.806,0.806,0,0,0-.836.839v5.036a0.806,0.806,0,0,0,.836.839h21.738a0.806,0.806,0,0,0,.836-0.839v-5.036A0.816,0.816,0,0,0,644.768,973.522Zm-22.34-6.951H639.15a0.806,0.806,0,0,0,.837-0.838V960.7a0.806,0.806,0,0,0-.837-0.839H622.428a0.806,0.806,0,0,0-.836.839v5.037a0.819,0.819,0,0,0,.235.6A0.81,0.81,0,0,0,622.428,966.571Z" transform="translate(-599 -933)"/>
</svg>
